<svg id="Capa_1" enable-background="new 0 0 512 512" height="512" viewBox="0 0 512 512" width="512" xmlns="http://www.w3.org/2000/svg"><g><path d="m375.146 199.206c10.227-20.842 16.86-42.383 16.86-63.2-.001-74.994-61.012-136.006-136.006-136.006s-136.005 61.012-136.005 136.006c0 20.818 6.633 42.358 16.86 63.2h-136.855v312.794h512v-312.794zm-119.146-169.206c58.452 0 106.005 47.554 106.005 106.006 0 30.257-19.59 69.367-56.653 113.104-19.008 22.43-38.236 40.817-49.356 50.933-11.049-10.046-30.104-28.266-49.064-50.598-37.249-43.873-56.938-83.099-56.938-113.438.001-58.453 47.554-106.007 106.006-106.007zm-101.851 199.206c36.273 55.183 88.876 99.54 92.238 102.346l9.613 8.025 9.613-8.025c3.362-2.806 55.964-47.162 92.238-102.346h122.609c-4.173 20.165-16.597 38.175-34.468 49.045l-189.992 115.551-189.992-115.551c-17.871-10.87-30.295-28.88-34.468-49.045zm101.851 199.709 73.175-44.505 124.401 97.59h-395.91l123.155-98.809zm-205.581-125.033 103.133 62.725-123.552 99.127v-178.14c6.046 6.207 12.883 11.704 20.419 16.288zm431.581 162.286-125.447-98.409 105.027-63.877c7.536-4.583 14.374-10.081 20.419-16.288v178.574z"/><path d="m256 179.643c31.582 0 57.275-25.693 57.275-57.275s-25.693-57.276-57.275-57.276-57.275 25.693-57.275 57.275 25.693 57.276 57.275 57.276zm0-84.551c15.04 0 27.275 12.235 27.275 27.275s-12.235 27.276-27.275 27.276-27.275-12.235-27.275-27.275 12.235-27.276 27.275-27.276z"/></g></svg>